<!DOCTYPE svg PUBLIC "-//W3C//DTD SVG 1.1//EN" "http://www.w3.org/Graphics/SVG/1.1/DTD/svg11.dtd">
<!-- Uploaded to: SVG Repo, www.svgrepo.com, Transformed by: SVG Repo Mixer Tools -->
<svg fill="#00ADB5" width="800px" height="800px" viewBox="0 0 24 24" xmlns="http://www.w3.org/2000/svg" stroke="#00ADB5" stroke-width="0.00024000000000000003" transform="rotate(270)">
<g id="SVGRepo_bgCarrier" stroke-width="0"/>
<g id="SVGRepo_tracerCarrier" stroke-linecap="round" stroke-linejoin="round"/>
<g id="SVGRepo_iconCarrier">
<path d="M20,9H16a1,1,0,0,0-1,1v1H7V7H8A1,1,0,0,0,9,6V2A1,1,0,0,0,8,1H4A1,1,0,0,0,3,2V6A1,1,0,0,0,4,7H5V20a1,1,0,0,0,1,1h9v1a1,1,0,0,0,1,1h4a1,1,0,0,0,1-1V18a1,1,0,0,0-1-1H16a1,1,0,0,0-1,1v1H7V13h8v1a1,1,0,0,0,1,1h4a1,1,0,0,0,1-1V10A1,1,0,0,0,20,9ZM5,3H7V5H5ZM17,19h2v2H17Zm2-6H17V11h2Z"/>
</g>
</svg>